Coordinates
version=1
nRows=4
nColumns=63
inDegrees=yes

Units are S.I. units (second, meters, Newtons, ...)
If the header above contains a line with 'inDegrees', this indicates whether rotational values are in degrees (yes) or radians (no).

endheader
time	pelvis_tilt	pelvis_list	pelvis_rotation	pelvis_tx	pelvis_ty	pelvis_tz	hip_flexion_r	hip_adduction_r	hip_rotation_r	knee_angle_r	knee_angle_r_beta	ankle_angle_r	subtalar_angle_r	mtp_angle_r	hip_flexion_l	hip_adduction_l	hip_rotation_l	knee_angle_l	knee_angle_l_beta	ankle_angle_l	subtalar_angle_l	mtp_angle_l	L5_S1_Flex_Ext	L5_S1_Lat_Bending	L5_S1_axial_rotation	L4_L5_Flex_Ext	L4_L5_Lat_Bending	L4_L5_axial_rotation	L3_L4_Flex_Ext	L3_L4_Lat_Bending	L3_L4_axial_rotation	L2_L3_Flex_Ext	L2_L3_Lat_Bending	L2_L3_axial_rotation	L1_L2_Flex_Ext	L1_L2_Lat_Bending	L1_L2_axial_rotation	L1_T12_Flex_Ext	L1_T12_Lat_Bending	L1_T12_axial_rotation	Abs_r3	Abs_r2	Abs_r1	Abs_t1	Abs_t2	neck_flexion	neck_bending	neck_rotation	arm_flex_r	arm_add_r	arm_rot_r	elbow_flex_r	pro_sup_r	wrist_flex_r	wrist_dev_r	arm_flex_l	arm_add_l	arm_rot_l	elbow_flex_l	pro_sup_l	wrist_flex_l	wrist_dev_l
      0.00000000	     -0.44551009	     -5.00146544	     67.17692692	      0.21270030	      0.95105715	      0.51929773	      8.23419742	      5.91293304	     10.31508426	     10.05077380	      0.17541910	     24.34398978	    -14.94635514	      0.00000000	      3.76384860	     -6.33186781	    -16.86698950	      6.42616700	      0.11215777	     34.08078142	     13.62397511	      0.00000000	      0.15066064	      0.43691745	      2.62625996	      0.27979187	      0.58110020	      2.79040121	      0.24752036	      1.06232108	      2.79040121	      0.17219004	      1.06232108	      2.29797747	      0.13990347	      0.89096206	      2.13383622	      0.08608749	      0.67678513	      1.96969497	      1.07615388	      4.94249755	     14.60647003	      0.00000000	      0.00000000	     26.79656210	     -3.59597456	    -13.53553259	     16.22313729	     -5.49634370	     44.43156688	     34.66777036	     47.36776609	     -3.38445166	     15.05286745	     24.85020081	     -1.94203950	     69.19513281	     30.56435297	     81.59476482	     -9.23864024	     -5.03587942
      0.01851852	     -0.60871512	     -5.31606145	     67.55231680	      0.21211464	      0.94982578	      0.51848979	      8.82872549	      5.75025383	      8.93633086	     11.14451907	      0.19450855	     24.10158392	    -14.81458181	      0.00000000	      4.14371738	     -6.20135676	    -14.81620642	      6.36042876	      0.11101042	     33.85007780	     12.68025727	      0.00000000	      0.17139580	      0.45656741	      2.26103608	      0.31829914	      0.60723466	      2.40235083	      0.28158616	      1.11009801	      2.40235083	      0.19588826	      1.11009801	      1.97840657	      0.15915814	      0.93103227	      1.83709181	      0.09793556	      0.70722293	      1.69577706	      1.22426305	      5.16478191	     12.57520434	      0.00000000	      0.00000000	     27.04313768	     -2.74531003	    -10.62863509	     16.53585277	     -5.30093293	     47.88948383	     34.41016902	     50.06610821	     -3.63513332	     14.11407132	     23.15533445	     -3.13155825	     64.68645246	     32.50456493	     78.99642806	     -8.20703022	     -4.34901606
      0.03703704	     -0.74345057	     -5.59932063	     68.04226734	      0.21135544	      0.94875183	      0.51774643	      9.41617361	      5.57290411	      7.60027328	     12.11407437	      0.21143048	     24.36138000	    -14.37116598	      0.00000000	      4.51910663	     -6.06605246	    -12.65718026	      6.26154340	      0.10928455	     33.67884509	     11.45295066	      0.00000000	      0.19744759	      0.47207841	      1.96019694	      0.36667991	      0.62786429	      2.08270925	      0.32438664	      1.14781145	      2.08270925	      0.22566285	      1.14781145	      1.71517233	      0.18334983	      0.96266230	      1.59266002	      0.11282155	      0.73124946	      1.47014771	      1.41034837	      5.34024542	     10.90202735	      0.00000000	      0.00000000	     27.27349382	     -2.23515870	     -8.48369696	     16.82589863	     -5.10202254	     50.17177584	     34.11465522	     51.56927809	     -3.41975950	     13.55430935	     21.86581605	     -3.81023816	     61.25373135	     33.77559237	     78.02655056	     -7.24835322	     -3.75013348
      0.05555556	     -0.80382991	     -5.75787872	     68.39217783	      0.21046743	      0.94794886	      0.51703455	      9.87067632	      5.38575359	      6.22675059	     12.96463627	      0.22627559	     25.03440602	    -13.30179261	      0.00000000	      4.51100821	     -5.73646487	     -7.84367462	      5.58034828	      0.09739545	     32.84633773	      6.20171693	      0.00000000	      0.21065397	      0.48884552	      1.75734947	      0.39120549	      0.65016454	      1.86718382	      0.34608341	      1.18857899	      1.86718382	      0.24075642	      1.18857899	      1.53768079	      0.19561328	      0.99685378	      1.42784645	      0.12036768	      0.75722171	      1.31801211	      1.50468025	      5.52991826	      9.77385057	      0.00000000	      0.00000000	     27.44647291	     -2.05888823	     -7.11868324	     17.12869670	     -5.09875153	     52.01286006	     34.04269400	     50.95994460	     -3.34924056	     13.08906006	     20.80984300	     -4.01310322	     57.77014016	     34.60561327	     80.71150212	     -6.36444878	     -2.81669981
